<svg xmlns="http://www.w3.org/2000/svg" width="13" height="19" viewBox="0 0 13 19">
  <metadata><?xpacket begin="﻿" id="W5M0MpCehiHzreSzNTczkc9d"?>
<x:xmpmeta xmlns:x="adobe:ns:meta/" x:xmptk="Adobe XMP Core 5.6-c138 79.159824, 2016/09/14-01:09:01        ">
   <rdf:RDF xmlns:rdf="http://www.w3.org/1999/02/22-rdf-syntax-ns#">
      <rdf:Description rdf:about=""/>
   </rdf:RDF>
</x:xmpmeta>
                                                                                                    
                                                                                                    
                                                                                                    
                                                                                                    
                                                                                                    
                                                                                                    
                                                                                                    
                                                                                                    
                                                                                                    
                                                                                                    
                                                                                                    
                                                                                                    
                                                                                                    
                                                                                                    
                                                                                                    
                                                                                                    
                                                                                                    
                                                                                                    
                                                                                                    
                                                                                                    
                           
<?xpacket end="w"?></metadata>
<defs>
    <style>
      .cls-1 {
        fill-rule: evenodd;
      }
    </style>
  </defs>
  <path id="Forma_1" data-name="Forma 1" class="cls-1" d="M1294.69,7187.73a5,5,0,0,0-.3-0.76,6.456,6.456,0,0,0-12.39,1.92v0.81c0,0.04.01,0.34,0.03,0.49,0.23,1.9,1.72,3.91,2.82,5.8,1.19,2.02,2.43,4.02,3.65,6.01,0.76-1.3,1.51-2.62,2.25-3.88,0.2-.38.43-0.75,0.63-1.1,0.14-.24.39-0.48,0.51-0.7,1.19-2.19,3.11-4.4,3.11-6.58v-0.9A6.476,6.476,0,0,0,1294.69,7187.73Zm-6.23,4.07a2.3,2.3,0,0,1-2.2-1.59,2.191,2.191,0,0,1-.07-0.59v-0.52a2.2,2.2,0,0,1,2.35-2.17,2.393,2.393,0,0,1,2.38,2.44A2.446,2.446,0,0,1,1288.46,7191.8Z" transform="translate(-1282 -7183)"/>
</svg>
