<svg xmlns="http://www.w3.org/2000/svg" width="17" height="17" viewBox="0 0 17 17">
  <metadata><?xpacket begin="﻿" id="W5M0MpCehiHzreSzNTczkc9d"?>
<x:xmpmeta xmlns:x="adobe:ns:meta/" x:xmptk="Adobe XMP Core 5.6-c138 79.159824, 2016/09/14-01:09:01        ">
   <rdf:RDF xmlns:rdf="http://www.w3.org/1999/02/22-rdf-syntax-ns#">
      <rdf:Description rdf:about=""/>
   </rdf:RDF>
</x:xmpmeta>
                                                                                                    
                                                                                                    
                                                                                                    
                                                                                                    
                                                                                                    
                                                                                                    
                                                                                                    
                                                                                                    
                                                                                                    
                                                                                                    
                                                                                                    
                                                                                                    
                                                                                                    
                                                                                                    
                                                                                                    
                                                                                                    
                                                                                                    
                                                                                                    
                                                                                                    
                                                                                                    
                           
<?xpacket end="w"?></metadata>
<defs>
    <style>
      .cls-1 {
        fill-rule: evenodd;
      }
    </style>
  </defs>
  <path id="Forma_1" data-name="Forma 1" class="cls-1" d="M16.992,13.416a0.824,0.824,0,0,1-.252.721l-2.394,2.377a1.353,1.353,0,0,1-.423.307,1.77,1.77,0,0,1-.513.162l-0.108.009Q13.212,17,13.068,17a8.237,8.237,0,0,1-1.107-.117,8.419,8.419,0,0,1-1.871-.576,15.711,15.711,0,0,1-2.511-1.378,18.683,18.683,0,0,1-2.987-2.521A19.709,19.709,0,0,1,2.5,10.03a16.9,16.9,0,0,1-1.332-2.1A11.311,11.311,0,0,1,.417,6.185,9.255,9.255,0,0,1,.075,4.835,4.464,4.464,0,0,1,0,3.943q0.018-.324.018-0.36A1.754,1.754,0,0,1,.183,3.07,1.354,1.354,0,0,1,.489,2.647L2.882,0.252A0.792,0.792,0,0,1,3.458,0a0.673,0.673,0,0,1,.414.135,1.254,1.254,0,0,1,.306.333L6.1,4.124a0.876,0.876,0,0,1,.09.63,1.121,1.121,0,0,1-.306.576l-0.882.883a0.3,0.3,0,0,0-.063.117,0.449,0.449,0,0,0-.027.135,3.259,3.259,0,0,0,.324.865,7.905,7.905,0,0,0,.666,1.053A11.646,11.646,0,0,0,7.183,9.814,11.927,11.927,0,0,0,8.623,11.1a8.362,8.362,0,0,0,1.053.675,2.794,2.794,0,0,0,.648.261l0.225,0.045a0.417,0.417,0,0,0,.117-0.027,0.3,0.3,0,0,0,.117-0.063l1.026-1.044a1.1,1.1,0,0,1,.756-0.288,0.937,0.937,0,0,1,.486.108h0.018l3.473,2.053A0.906,0.906,0,0,1,16.992,13.416Z"/>
</svg>
