<svg xmlns="http://www.w3.org/2000/svg" width="56.376" height="58.76" viewBox="0 0 56.376 58.76">
  <metadata><?xpacket begin="﻿" id="W5M0MpCehiHzreSzNTczkc9d"?>
<x:xmpmeta xmlns:x="adobe:ns:meta/" x:xmptk="Adobe XMP Core 5.6-c138 79.159824, 2016/09/14-01:09:01        ">
   <rdf:RDF xmlns:rdf="http://www.w3.org/1999/02/22-rdf-syntax-ns#">
      <rdf:Description rdf:about=""/>
   </rdf:RDF>
</x:xmpmeta>
                                                                                                    
                                                                                                    
                                                                                                    
                                                                                                    
                                                                                                    
                                                                                                    
                                                                                                    
                                                                                                    
                                                                                                    
                                                                                                    
                                                                                                    
                                                                                                    
                                                                                                    
                                                                                                    
                                                                                                    
                                                                                                    
                                                                                                    
                                                                                                    
                                                                                                    
                                                                                                    
                           
<?xpacket end="w"?></metadata>
<defs>
    <style>
      .cls-1 {
        fill: #1bc20e;
        fill-rule: evenodd;
      }
    </style>
  </defs>
  <path id="Forma_1" data-name="Forma 1" class="cls-1" d="M963.069,2419.63h-5.138a25.618,25.618,0,0,0-25.605,25.58v13.82a1.432,1.432,0,0,0,1.434,1.43h2.154v1.01a1.441,1.441,0,0,0,1.435,1.44h2.6a4.677,4.677,0,0,0,4.668-4.67v-11.2a4.671,4.671,0,0,0-4.668-4.67h-2.6a1.432,1.432,0,0,0-1.435,1.43v1.01h-0.709a22.752,22.752,0,0,1,22.726-22.32h5.138a22.753,22.753,0,0,1,22.726,22.32h-0.709v-1.01a1.433,1.433,0,0,0-1.435-1.43h-2.6a4.671,4.671,0,0,0-4.669,4.67v11.2a4.678,4.678,0,0,0,4.669,4.67h2.6a1.441,1.441,0,0,0,1.017-.43v3.1a7.533,7.533,0,0,1-7.533,7.52H968.6a3.849,3.849,0,0,0-3.557-2.4h-3.874a3.835,3.835,0,1,0,0,7.67h3.874a3.834,3.834,0,0,0,3.557-2.4h8.531a10.407,10.407,0,0,0,10.4-10.39v-5.15a1.433,1.433,0,0,0,1.137-1.4v-13.82A25.618,25.618,0,0,0,963.069,2419.63Z" transform="translate(-932.312 -2419.62)"/>
</svg>
