<svg xmlns="http://www.w3.org/2000/svg" width="54.5" height="54.5" viewBox="0 0 54.5 54.5">
  <metadata><?xpacket begin="﻿" id="W5M0MpCehiHzreSzNTczkc9d"?>
<x:xmpmeta xmlns:x="adobe:ns:meta/" x:xmptk="Adobe XMP Core 5.6-c138 79.159824, 2016/09/14-01:09:01        ">
   <rdf:RDF xmlns:rdf="http://www.w3.org/1999/02/22-rdf-syntax-ns#">
      <rdf:Description rdf:about=""/>
   </rdf:RDF>
</x:xmpmeta>
                                                                                                    
                                                                                                    
                                                                                                    
                                                                                                    
                                                                                                    
                                                                                                    
                                                                                                    
                                                                                                    
                                                                                                    
                                                                                                    
                                                                                                    
                                                                                                    
                                                                                                    
                                                                                                    
                                                                                                    
                                                                                                    
                                                                                                    
                                                                                                    
                                                                                                    
                                                                                                    
                           
<?xpacket end="w"?></metadata>
<defs>
    <style>
      .cls-1 {
        fill: #1bc20e;
        fill-rule: evenodd;
      }
    </style>
  </defs>
  <path class="cls-1" d="M487.25,2603.5a27.25,27.25,0,1,0,27.25,27.25A27.279,27.279,0,0,0,487.25,2603.5Zm0,51.15a23.9,23.9,0,1,1,23.9-23.9A23.924,23.924,0,0,1,487.25,2654.65Zm0.434-37.57a2.805,2.805,0,1,1-2.8,2.8A2.807,2.807,0,0,1,487.684,2617.08Zm-0.738,10.18a1.677,1.677,0,0,0-1.677,1.68v14.25a1.677,1.677,0,1,0,3.353,0v-14.25A1.677,1.677,0,0,0,486.946,2627.26Z" transform="translate(-460 -2603.5)"/>
</svg>
