<svg xmlns="http://www.w3.org/2000/svg" width="71.312" height="47.53" viewBox="0 0 71.312 47.53">
  <metadata><?xpacket begin="﻿" id="W5M0MpCehiHzreSzNTczkc9d"?>
<x:xmpmeta xmlns:x="adobe:ns:meta/" x:xmptk="Adobe XMP Core 5.6-c138 79.159824, 2016/09/14-01:09:01        ">
   <rdf:RDF xmlns:rdf="http://www.w3.org/1999/02/22-rdf-syntax-ns#">
      <rdf:Description rdf:about=""/>
   </rdf:RDF>
</x:xmpmeta>
                                                                                                    
                                                                                                    
                                                                                                    
                                                                                                    
                                                                                                    
                                                                                                    
                                                                                                    
                                                                                                    
                                                                                                    
                                                                                                    
                                                                                                    
                                                                                                    
                                                                                                    
                                                                                                    
                                                                                                    
                                                                                                    
                                                                                                    
                                                                                                    
                                                                                                    
                                                                                                    
                           
<?xpacket end="w"?></metadata>
<defs>
    <style>
      .cls-1 {
        fill: #1bc20e;
        fill-rule: evenodd;
      }
    </style>
  </defs>
  <path class="cls-1" d="M521.011,2427.74a1.465,1.465,0,0,0-1.359-.18l-12.108,4.4a5.923,5.923,0,0,0-3.365,3.1,6.007,6.007,0,0,0-.29.83,54.611,54.611,0,0,1-9.783-3.8c-5.8-2.99-10.235-1.51-14.037,1.39-1.927.03-4.582,0.26-7.192,0.49-1.665.15-3.239,0.28-4.515,0.36a5.951,5.951,0,0,0-3.906-5.34l-12.108-4.4a1.476,1.476,0,0,0-1.993,1.39v29.72a1.48,1.48,0,0,0,1.485,1.48h4.338a5.962,5.962,0,0,0,4.671-2.28c0.591,0.45,1.291.98,2.026,1.53,1.733,1.31,3.63,2.73,4.463,3.43,5.53,4.63,12.179,9.63,13.5,10.5a10.927,10.927,0,0,0,5.159,1.68,5.455,5.455,0,0,0,3.5-.99,4.766,4.766,0,0,0,3.722-.09,5.545,5.545,0,0,0,2.754-2.75,5.75,5.75,0,0,0,3.7-.55,5.012,5.012,0,0,0,2.413-2.43,4.679,4.679,0,0,0,3.245-1.03,4.824,4.824,0,0,0,1.946-4.41l3.767-2.08a5.961,5.961,0,0,0,4.769,2.44h4.338a1.48,1.48,0,0,0,1.485-1.48v-29.72A1.467,1.467,0,0,0,521.011,2427.74Zm-62.051,24.54a2.991,2.991,0,0,1-2.782,1.93h-2.853V2428.1l10.115,3.68a2.976,2.976,0,0,1,1.767,3.84Zm44.577,9.56a1.342,1.342,0,0,1-1.522.29,0.15,0.15,0,0,0-.057-0.03,0.52,0.52,0,0,0-.073-0.09c-1.062-.84-5.819-5.71-8.759-8.78a1.487,1.487,0,0,0-2.144,2.06c0.69,0.72,6.23,6.49,8.447,8.51a2.08,2.08,0,0,1-1.077,1.21,2.269,2.269,0,0,1-2.315.05c-0.011-.01-0.028-0.01-0.039-0.02a0.2,0.2,0,0,0-.045-0.05c-1.782-1.43-6.25-6.18-7.261-7.28a1.485,1.485,0,1,0-2.187,2.01c0.048,0.06,4.428,4.78,6.887,6.98a2.626,2.626,0,0,1-1.366,1.55,1.951,1.951,0,0,1-2.029-.31c-2.133-1.8-6.413-6.36-7.255-7.26a1.482,1.482,0,0,0-2.169,2.02c1,1.07,3.948,4.2,6.19,6.32a6.516,6.516,0,0,1-.763.05,8.183,8.183,0,0,1-3.527-1.19c-1.042-.69-7.58-5.57-13.227-10.3-0.854-.72-2.8-2.18-4.587-3.52-0.957-.72-1.837-1.38-2.487-1.88l5.561-14.84c1.444-.06,3.368-0.23,5.4-0.41,1.152-.1,2.305-0.2,3.407-0.28-1.694,1.73-4.212,4.85-3.88,7.77a4.266,4.266,0,0,0,2.1,3.2c2.427,1.52,6.919.25,9.083-2.41a10.546,10.546,0,0,0,3.371-1.07c1.74,1.63,4.074,3.56,6.525,5.58,4.267,3.51,9.1,7.5,10.383,9.74A1.793,1.793,0,0,1,503.537,2461.84Zm2.548-4.78c-1.979-2.65-6.269-6.19-10.449-9.64-2.786-2.29-5.417-4.46-7.1-6.15a1.5,1.5,0,0,0-1.75-.26,8.47,8.47,0,0,1-3.9,1.32,1.494,1.494,0,0,0-1.109.69c-1.164,1.85-4.4,2.73-5.428,2.08a1.3,1.3,0,0,1-.729-1.02c-0.143-1.26,1.136-3.45,3.258-5.57,5.255-5.26,9.012-6.29,13.872-3.78a57.891,57.891,0,0,0,11.088,4.24,5.973,5.973,0,0,0,.177.66l5.767,15.39Zm12.59,0.12h-2.853a2.976,2.976,0,0,1-2.782-1.93l-6.247-16.66a2.96,2.96,0,0,1,.084-2.29,2.991,2.991,0,0,1,1.682-1.55l10.116-3.68v26.11h0Z" transform="translate(-450.344 -2424.5)"/>
</svg>
