<svg xmlns="http://www.w3.org/2000/svg" width="51.438" height="45.44" viewBox="0 0 51.438 45.44">
  <metadata><?xpacket begin="﻿" id="W5M0MpCehiHzreSzNTczkc9d"?>
<x:xmpmeta xmlns:x="adobe:ns:meta/" x:xmptk="Adobe XMP Core 5.6-c138 79.159824, 2016/09/14-01:09:01        ">
   <rdf:RDF xmlns:rdf="http://www.w3.org/1999/02/22-rdf-syntax-ns#">
      <rdf:Description rdf:about=""/>
   </rdf:RDF>
</x:xmpmeta>
                                                                                                    
                                                                                                    
                                                                                                    
                                                                                                    
                                                                                                    
                                                                                                    
                                                                                                    
                                                                                                    
                                                                                                    
                                                                                                    
                                                                                                    
                                                                                                    
                                                                                                    
                                                                                                    
                                                                                                    
                                                                                                    
                                                                                                    
                                                                                                    
                                                                                                    
                                                                                                    
                           
<?xpacket end="w"?></metadata>
<defs>
    <style>
      .cls-1 {
        fill: #1bc20e;
        fill-rule: evenodd;
      }
    </style>
  </defs>
  <path id="Forma_1" data-name="Forma 1" class="cls-1" d="M952.178,2643.39H940.417a1.165,1.165,0,0,0,0,2.33h11.761A1.165,1.165,0,0,0,952.178,2643.39Zm17.582,0H958a1.165,1.165,0,0,0,0,2.33h11.76A1.165,1.165,0,1,0,969.76,2643.39Zm0-29.11H940.417a1.165,1.165,0,0,0,0,2.33H969.76A1.165,1.165,0,1,0,969.76,2614.28Zm0,5.82H958a1.165,1.165,0,0,0,0,2.33h11.76A1.165,1.165,0,1,0,969.76,2620.1Zm0,5.82H958a1.165,1.165,0,0,0,0,2.33h11.76A1.165,1.165,0,1,0,969.76,2625.92Zm0,5.83H958a1.165,1.165,0,0,0,0,2.33h11.76A1.165,1.165,0,1,0,969.76,2631.75Zm0,5.82H958a1.165,1.165,0,0,0,0,2.33h11.76A1.165,1.165,0,1,0,969.76,2637.57Zm-17.582,0H940.417a1.165,1.165,0,0,0,0,2.33h11.761A1.165,1.165,0,0,0,952.178,2637.57Zm0-17.47H940.417a1.164,1.164,0,0,0-1.164,1.17v11.76a1.162,1.162,0,0,0,1.164,1.16h11.761a1.162,1.162,0,0,0,1.164-1.16v-11.76A1.164,1.164,0,0,0,952.178,2620.1Zm-1.164,11.76h-9.432v-9.43h9.432v9.43Zm30.391-18.74h-3.494v-3.5a2.334,2.334,0,0,0-2.328-2.33H934.6a2.334,2.334,0,0,0-2.328,2.33v37.26a5.835,5.835,0,0,0,5.822,5.83h39.822a5.835,5.835,0,0,0,5.822-5.83v-31.44A2.326,2.326,0,0,0,981.405,2613.12Zm0,33.76a3.5,3.5,0,0,1-3.494,3.5H938.089a3.5,3.5,0,0,1-3.494-3.5v-37.26h40.988v35.52a2.916,2.916,0,0,0,2.911,2.91,1.165,1.165,0,0,0,0-2.33,0.582,0.582,0,0,1-.583-0.58v-29.7h3.494v31.44Z" transform="translate(-932.281 -2607.28)"/>
</svg>
