<svg xmlns="http://www.w3.org/2000/svg" width="54" height="54" viewBox="0 0 54 54">
  <metadata><?xpacket begin="﻿" id="W5M0MpCehiHzreSzNTczkc9d"?>
<x:xmpmeta xmlns:x="adobe:ns:meta/" x:xmptk="Adobe XMP Core 5.6-c138 79.159824, 2016/09/14-01:09:01        ">
   <rdf:RDF xmlns:rdf="http://www.w3.org/1999/02/22-rdf-syntax-ns#">
      <rdf:Description rdf:about=""/>
   </rdf:RDF>
</x:xmpmeta>
                                                                                                    
                                                                                                    
                                                                                                    
                                                                                                    
                                                                                                    
                                                                                                    
                                                                                                    
                                                                                                    
                                                                                                    
                                                                                                    
                                                                                                    
                                                                                                    
                                                                                                    
                                                                                                    
                                                                                                    
                                                                                                    
                                                                                                    
                                                                                                    
                                                                                                    
                                                                                                    
                           
<?xpacket end="w"?></metadata>
<defs>
    <style>
      .cls-1 {
        fill: #1bc20e;
        fill-rule: evenodd;
      }
    </style>
  </defs>
  <path id="Forma_1" data-name="Forma 1" class="cls-1" d="M1432.06,2418.56v-0.06h-3.6v0.06a27,27,0,0,0-25.14,25.14h-0.06v3.6h0.06a27,27,0,0,0,25.14,25.14v0.06h3.6v-0.06a27,27,0,0,0,25.14-25.14h0.06v-3.6h-0.06A27,27,0,0,0,1432.06,2418.56Zm-11.9,5.82a28.64,28.64,0,0,0-4.23,8.52h-5.39A23.59,23.59,0,0,1,1420.16,2424.38Zm-11.51,12.12h6.33a42.2,42.2,0,0,0-.88,7.2h-7.17A23.282,23.282,0,0,1,1408.65,2436.5Zm-1.72,10.8h7.17a42.2,42.2,0,0,0,.88,7.2h-6.33A23.351,23.351,0,0,1,1406.93,2447.3Zm3.61,10.8h5.39a28.579,28.579,0,0,0,4.23,8.51A23.5,23.5,0,0,1,1410.54,2458.1Zm17.92,10.57c-3.7-.99-6.89-4.97-8.82-10.57h8.82v10.57Zm0-14.17h-9.83a39.649,39.649,0,0,1-.93-7.2h10.76v7.2Zm0-10.8H1417.7a39.533,39.533,0,0,1,.93-7.2h9.83v7.2Zm0-10.8h-8.82c1.93-5.61,5.12-9.58,8.82-10.57v10.57Zm21.52,0h-5.38a28.893,28.893,0,0,0-4.24-8.52A23.59,23.59,0,0,1,1449.98,2432.9Zm-17.92-10.57c3.7,0.99,6.89,4.96,8.82,10.57h-8.82v-10.57Zm0,14.17h9.83a40.413,40.413,0,0,1,.94,7.2h-10.77v-7.2Zm0,10.8h10.77a40.535,40.535,0,0,1-.94,7.2h-9.83v-7.2Zm0,21.37V2458.1h8.82C1438.95,2463.7,1435.76,2467.68,1432.06,2468.67Zm8.3-2.06a28.831,28.831,0,0,0,4.24-8.51h5.38A23.5,23.5,0,0,1,1440.36,2466.61Zm11.51-12.11h-6.33a43.21,43.21,0,0,0,.89-7.2h7.16A23.351,23.351,0,0,1,1451.87,2454.5Zm-5.44-10.8a43.21,43.21,0,0,0-.89-7.2h6.33a23.282,23.282,0,0,1,1.72,7.2h-7.16Z" transform="translate(-1403.25 -2418.5)"/>
</svg>
