<svg xmlns="http://www.w3.org/2000/svg" width="52" height="52" viewBox="0 0 52 52">
  <metadata><?xpacket begin="﻿" id="W5M0MpCehiHzreSzNTczkc9d"?>
<x:xmpmeta xmlns:x="adobe:ns:meta/" x:xmptk="Adobe XMP Core 5.6-c138 79.159824, 2016/09/14-01:09:01        ">
   <rdf:RDF xmlns:rdf="http://www.w3.org/1999/02/22-rdf-syntax-ns#">
      <rdf:Description rdf:about=""/>
   </rdf:RDF>
</x:xmpmeta>
                                                                                                    
                                                                                                    
                                                                                                    
                                                                                                    
                                                                                                    
                                                                                                    
                                                                                                    
                                                                                                    
                                                                                                    
                                                                                                    
                                                                                                    
                                                                                                    
                                                                                                    
                                                                                                    
                                                                                                    
                                                                                                    
                                                                                                    
                                                                                                    
                                                                                                    
                                                                                                    
                           
<?xpacket end="w"?></metadata>
<defs>
    <style>
      .cls-1 {
        fill: #1bc20e;
        fill-rule: evenodd;
      }
    </style>
  </defs>
  <path id="Forma_1" data-name="Forma 1" class="cls-1" d="M1457.92,2613.87a25.634,25.634,0,1,0,2.08,10.1A25.159,25.159,0,0,0,1457.92,2613.87Zm-4.15,21.59a22.8,22.8,0,0,1-8.35,8.34,22.443,22.443,0,0,1-11.46,3.07,22.039,22.039,0,0,1-8.87-1.82,22.289,22.289,0,0,1-12.14-12.18,23.013,23.013,0,0,1,1.25-20.33,22.818,22.818,0,0,1,8.33-8.34,22.85,22.85,0,0,1,22.88,0,22.824,22.824,0,0,1,8.36,8.34A22.924,22.924,0,0,1,1453.77,2635.46Zm-18.16-11.72v-14.73a1.64,1.64,0,0,0-1.65-1.59,1.6,1.6,0,0,0-1.57,1.59v14.96a1.2,1.2,0,0,1,.06.23,1.483,1.483,0,0,0,.43,1.28l8.5,8.5a1.616,1.616,0,0,0,2.19,0,1.528,1.528,0,0,0,0-2.21Z" transform="translate(-1408 -2598)"/>
</svg>
