<svg xmlns="http://www.w3.org/2000/svg" width="402" height="513" viewBox="0 0 402 513">
  <metadata><?xpacket begin="﻿" id="W5M0MpCehiHzreSzNTczkc9d"?>
<x:xmpmeta xmlns:x="adobe:ns:meta/" x:xmptk="Adobe XMP Core 5.6-c138 79.159824, 2016/09/14-01:09:01        ">
   <rdf:RDF xmlns:rdf="http://www.w3.org/1999/02/22-rdf-syntax-ns#">
      <rdf:Description rdf:about=""/>
   </rdf:RDF>
</x:xmpmeta>
                                                                                                    
                                                                                                    
                                                                                                    
                                                                                                    
                                                                                                    
                                                                                                    
                                                                                                    
                                                                                                    
                                                                                                    
                                                                                                    
                                                                                                    
                                                                                                    
                                                                                                    
                                                                                                    
                                                                                                    
                                                                                                    
                                                                                                    
                                                                                                    
                                                                                                    
                                                                                                    
                           
<?xpacket end="w"?></metadata>
<defs>
    <style>
      .cls-1 {
        fill: #d9d9d9;
        fill-rule: evenodd;
      }
    </style>
  </defs>
  <path id="Forma_1" data-name="Forma 1" class="cls-1" d="M307.915,188.1H94.085a8.55,8.55,0,1,0,0,17.1h213.83A8.55,8.55,0,1,0,307.915,188.1ZM94.085,136.8h85.532a8.55,8.55,0,1,0,0-17.1H94.085A8.55,8.55,0,1,0,94.085,136.8Zm213.83,119.7H94.085a8.55,8.55,0,1,0,0,17.1h213.83A8.55,8.55,0,1,0,307.915,256.5Zm0,68.4H94.085a8.55,8.55,0,1,0,0,17.1h213.83A8.55,8.55,0,1,0,307.915,324.9Zm0,68.4H94.085a8.55,8.55,0,1,0,0,17.1h213.83A8.55,8.55,0,1,0,307.915,393.3ZM277.243,0H0V513H402V124.71Zm5.012,29.19L372.8,119.7H282.255V29.19ZM17.106,495.9V17.1H265.149V136.8H384.894V495.9H17.106Z"/>
</svg>
