<svg xmlns="http://www.w3.org/2000/svg" width="15" height="19" viewBox="0 0 15 19">
  <metadata><?xpacket begin="﻿" id="W5M0MpCehiHzreSzNTczkc9d"?>
<x:xmpmeta xmlns:x="adobe:ns:meta/" x:xmptk="Adobe XMP Core 5.6-c138 79.159824, 2016/09/14-01:09:01        ">
   <rdf:RDF xmlns:rdf="http://www.w3.org/1999/02/22-rdf-syntax-ns#">
      <rdf:Description rdf:about=""/>
   </rdf:RDF>
</x:xmpmeta>
                                                                                                    
                                                                                                    
                                                                                                    
                                                                                                    
                                                                                                    
                                                                                                    
                                                                                                    
                                                                                                    
                                                                                                    
                                                                                                    
                                                                                                    
                                                                                                    
                                                                                                    
                                                                                                    
                                                                                                    
                                                                                                    
                                                                                                    
                                                                                                    
                                                                                                    
                                                                                                    
                           
<?xpacket end="w"?></metadata>
<defs>
    <style>
      .cls-1 {
        fill: #757575;
        fill-rule: evenodd;
      }
    </style>
  </defs>
  <path id="Forma_1" data-name="Forma 1" class="cls-1" d="M1432.49,4457.97h-7.98a0.315,0.315,0,1,0,0,.63h7.98A0.315,0.315,0,1,0,1432.49,4457.97Zm-7.98-1.9h3.19a0.322,0.322,0,0,0,.32-0.32,0.316,0.316,0,0,0-.32-0.32h-3.19a0.316,0.316,0,0,0-.32.32A0.322,0.322,0,0,0,1424.51,4456.07Zm7.98,4.43h-7.98a0.315,0.315,0,1,0,0,.63h7.98A0.315,0.315,0,1,0,1432.49,4460.5Zm0,2.53h-7.98a0.316,0.316,0,0,0-.32.32,0.322,0.322,0,0,0,.32.32h7.98a0.322,0.322,0,0,0,.32-0.32A0.316,0.316,0,0,0,1432.49,4463.03Zm0,2.54h-7.98a0.315,0.315,0,1,0,0,.63h7.98A0.315,0.315,0,1,0,1432.49,4465.57Zm-1.15-14.57H1421v19h15v-14.38Zm0.19,1.08,3.38,3.35h-3.38v-3.35Zm-9.89,17.29v-17.74h9.25v4.44h4.47v13.3h-13.72Z" transform="translate(-1421 -4451)"/>
</svg>
