<svg xmlns="http://www.w3.org/2000/svg" style="display:none"><defs><style>.cls-1{fill:#1bc20e;fill-rule:evenodd}</style><style>.cls-1{fill:#1bc20e;fill-rule:evenodd}</style><style>.cls-1{fill:#1bc20e;fill-rule:evenodd}</style><style>.cls-1{fill:#1bc20e;fill-rule:evenodd}</style><style>.cls-1{fill:#1bc20e;fill-rule:evenodd}</style><style>.cls-1{fill:#1bc20e;fill-rule:evenodd}</style></defs><symbol id="icon-dill-01" viewBox="0 0 71.312 47.53"><path class="cls-1" d="M70.667 3.24a1.465 1.465 0 0 0-1.359-.18L57.2 7.46a5.923 5.923 0 0 0-3.365 3.1 6.007 6.007 0 0 0-.29.83 54.611 54.611 0 0 1-9.783-3.8c-5.8-2.99-10.235-1.51-14.037 1.39-1.927.03-4.582.26-7.192.49-1.665.15-3.239.28-4.515.36a5.951 5.951 0 0 0-3.906-5.34L2.004.09A1.476 1.476 0 0 0 .011 1.48V31.2a1.48 1.48 0 0 0 1.485 1.48h4.338a5.962 5.962 0 0 0 4.671-2.28c.591.45 1.291.98 2.026 1.53 1.733 1.31 3.63 2.73 4.463 3.43 5.53 4.63 12.179 9.63 13.5 10.5a10.927 10.927 0 0 0 5.159 1.68 5.455 5.455 0 0 0 3.5-.99 4.766 4.766 0 0 0 3.722-.09 5.545 5.545 0 0 0 2.754-2.75 5.75 5.75 0 0 0 3.7-.55 5.012 5.012 0 0 0 2.413-2.43 4.679 4.679 0 0 0 3.245-1.03 4.824 4.824 0 0 0 1.946-4.41l3.767-2.08a5.961 5.961 0 0 0 4.769 2.44h4.338a1.48 1.48 0 0 0 1.485-1.48V4.45a1.467 1.467 0 0 0-.625-1.21zM8.616 27.78a2.991 2.991 0 0 1-2.782 1.93H2.981V3.6l10.115 3.68a2.976 2.976 0 0 1 1.767 3.84zm44.577 9.56a1.342 1.342 0 0 1-1.522.29.15.15 0 0 0-.057-.03.52.52 0 0 0-.073-.09c-1.062-.84-5.819-5.71-8.759-8.78a1.487 1.487 0 0 0-2.144 2.06c.69.72 6.23 6.49 8.447 8.51a2.08 2.08 0 0 1-1.077 1.21 2.269 2.269 0 0 1-2.315.05c-.011-.01-.028-.01-.039-.02a.2.2 0 0 0-.045-.05c-1.782-1.43-6.25-6.18-7.261-7.28a1.485 1.485 0 1 0-2.187 2.01c.048.06 4.428 4.78 6.887 6.98a2.626 2.626 0 0 1-1.366 1.55 1.951 1.951 0 0 1-2.029-.31c-2.133-1.8-6.413-6.36-7.255-7.26a1.482 1.482 0 0 0-2.169 2.02c1 1.07 3.948 4.2 6.19 6.32a6.516 6.516 0 0 1-.763.05 8.183 8.183 0 0 1-3.527-1.19c-1.042-.69-7.58-5.57-13.227-10.3-.854-.72-2.8-2.18-4.587-3.52-.957-.72-1.837-1.38-2.487-1.88l5.561-14.84c1.444-.06 3.368-.23 5.4-.41 1.152-.1 2.305-.2 3.407-.28-1.694 1.73-4.212 4.85-3.88 7.77a4.266 4.266 0 0 0 2.1 3.2c2.427 1.52 6.919.25 9.083-2.41a10.546 10.546 0 0 0 3.371-1.07c1.74 1.63 4.074 3.56 6.525 5.58 4.267 3.51 9.1 7.5 10.383 9.74a1.793 1.793 0 0 1-.585 2.38zm2.548-4.78c-1.979-2.65-6.269-6.19-10.449-9.64-2.786-2.29-5.417-4.46-7.1-6.15a1.5 1.5 0 0 0-1.75-.26 8.47 8.47 0 0 1-3.9 1.32 1.494 1.494 0 0 0-1.109.69c-1.164 1.85-4.4 2.73-5.428 2.08a1.3 1.3 0 0 1-.729-1.02c-.143-1.26 1.136-3.45 3.258-5.57 5.255-5.26 9.012-6.29 13.872-3.78a57.891 57.891 0 0 0 11.088 4.24 5.973 5.973 0 0 0 .177.66l5.767 15.39zm12.59.12h-2.853a2.976 2.976 0 0 1-2.782-1.93l-6.247-16.66a2.96 2.96 0 0 1 .084-2.29 2.991 2.991 0 0 1 1.682-1.55l10.116-3.68v26.11z"/></symbol><symbol id="icon-dill-02" viewBox="0 0 56.376 58.76"><path id="Forma_1" data-name="Forma 1" class="cls-1" d="M963.069 2419.63h-5.138a25.618 25.618 0 0 0-25.605 25.58v13.82a1.432 1.432 0 0 0 1.434 1.43h2.154v1.01a1.441 1.441 0 0 0 1.435 1.44h2.6a4.677 4.677 0 0 0 4.668-4.67v-11.2a4.671 4.671 0 0 0-4.668-4.67h-2.6a1.432 1.432 0 0 0-1.435 1.43v1.01h-.709a22.752 22.752 0 0 1 22.726-22.32h5.138a22.753 22.753 0 0 1 22.726 22.32h-.709v-1.01a1.433 1.433 0 0 0-1.435-1.43h-2.6a4.671 4.671 0 0 0-4.669 4.67v11.2a4.678 4.678 0 0 0 4.669 4.67h2.6a1.441 1.441 0 0 0 1.017-.43v3.1a7.533 7.533 0 0 1-7.533 7.52H968.6a3.849 3.849 0 0 0-3.557-2.4h-3.874a3.835 3.835 0 1 0 0 7.67h3.874a3.834 3.834 0 0 0 3.557-2.4h8.531a10.407 10.407 0 0 0 10.4-10.39v-5.15a1.433 1.433 0 0 0 1.137-1.4v-13.82a25.618 25.618 0 0 0-25.599-25.58z" transform="translate(-932.312 -2419.62)"/></symbol><symbol id="icon-dill-03" viewBox="0 0 54 54"><path id="Forma_1" data-name="Forma 1" class="cls-1" d="M1432.06 2418.56v-.06h-3.6v.06a27 27 0 0 0-25.14 25.14h-.06v3.6h.06a27 27 0 0 0 25.14 25.14v.06h3.6v-.06a27 27 0 0 0 25.14-25.14h.06v-3.6h-.06a27 27 0 0 0-25.14-25.14zm-11.9 5.82a28.64 28.64 0 0 0-4.23 8.52h-5.39a23.59 23.59 0 0 1 9.62-8.52zm-11.51 12.12h6.33a42.2 42.2 0 0 0-.88 7.2h-7.17a23.282 23.282 0 0 1 1.72-7.2zm-1.72 10.8h7.17a42.2 42.2 0 0 0 .88 7.2h-6.33a23.351 23.351 0 0 1-1.72-7.2zm3.61 10.8h5.39a28.579 28.579 0 0 0 4.23 8.51 23.5 23.5 0 0 1-9.62-8.51zm17.92 10.57c-3.7-.99-6.89-4.97-8.82-10.57h8.82v10.57zm0-14.17h-9.83a39.649 39.649 0 0 1-.93-7.2h10.76v7.2zm0-10.8h-10.76a39.533 39.533 0 0 1 .93-7.2h9.83v7.2zm0-10.8h-8.82c1.93-5.61 5.12-9.58 8.82-10.57v10.57zm21.52 0h-5.38a28.893 28.893 0 0 0-4.24-8.52 23.59 23.59 0 0 1 9.62 8.52zm-17.92-10.57c3.7.99 6.89 4.96 8.82 10.57h-8.82v-10.57zm0 14.17h9.83a40.413 40.413 0 0 1 .94 7.2h-10.77v-7.2zm0 10.8h10.77a40.535 40.535 0 0 1-.94 7.2h-9.83v-7.2zm0 21.37v-10.57h8.82c-1.93 5.6-5.12 9.58-8.82 10.57zm8.3-2.06a28.831 28.831 0 0 0 4.24-8.51h5.38a23.5 23.5 0 0 1-9.62 8.51zm11.51-12.11h-6.33a43.21 43.21 0 0 0 .89-7.2h7.16a23.351 23.351 0 0 1-1.72 7.2zm-5.44-10.8a43.21 43.21 0 0 0-.89-7.2h6.33a23.282 23.282 0 0 1 1.72 7.2h-7.16z" transform="translate(-1403.25 -2418.5)"/></symbol><symbol id="icon-dill-04" viewBox="0 0 54.5 54.5"><path class="cls-1" d="M27.25 0A27.25 27.25 0 1 0 54.5 27.25 27.279 27.279 0 0 0 27.25 0zm0 51.15a23.9 23.9 0 1 1 23.9-23.9 23.924 23.924 0 0 1-23.9 23.9zm.434-37.57a2.805 2.805 0 1 1-2.8 2.8 2.807 2.807 0 0 1 2.8-2.8zm-.738 10.18a1.677 1.677 0 0 0-1.677 1.68v14.25a1.677 1.677 0 1 0 3.353 0V25.44a1.677 1.677 0 0 0-1.676-1.68z"/></symbol><symbol id="icon-dill-05" viewBox="0 0 51.438 45.44"><path id="Forma_1" data-name="Forma 1" class="cls-1" d="M952.178 2643.39h-11.761a1.165 1.165 0 0 0 0 2.33h11.761a1.165 1.165 0 0 0 0-2.33zm17.582 0H958a1.165 1.165 0 0 0 0 2.33h11.76a1.165 1.165 0 1 0 0-2.33zm0-29.11h-29.343a1.165 1.165 0 0 0 0 2.33h29.343a1.165 1.165 0 1 0 0-2.33zm0 5.82H958a1.165 1.165 0 0 0 0 2.33h11.76a1.165 1.165 0 1 0 0-2.33zm0 5.82H958a1.165 1.165 0 0 0 0 2.33h11.76a1.165 1.165 0 1 0 0-2.33zm0 5.83H958a1.165 1.165 0 0 0 0 2.33h11.76a1.165 1.165 0 1 0 0-2.33zm0 5.82H958a1.165 1.165 0 0 0 0 2.33h11.76a1.165 1.165 0 1 0 0-2.33zm-17.582 0h-11.761a1.165 1.165 0 0 0 0 2.33h11.761a1.165 1.165 0 0 0 0-2.33zm0-17.47h-11.761a1.164 1.164 0 0 0-1.164 1.17v11.76a1.162 1.162 0 0 0 1.164 1.16h11.761a1.162 1.162 0 0 0 1.164-1.16v-11.76a1.164 1.164 0 0 0-1.164-1.17zm-1.164 11.76h-9.432v-9.43h9.432v9.43zm30.391-18.74h-3.494v-3.5a2.334 2.334 0 0 0-2.328-2.33H934.6a2.334 2.334 0 0 0-2.328 2.33v37.26a5.835 5.835 0 0 0 5.822 5.83h39.822a5.835 5.835 0 0 0 5.822-5.83v-31.44a2.326 2.326 0 0 0-2.333-2.32zm0 33.76a3.5 3.5 0 0 1-3.494 3.5h-39.822a3.5 3.5 0 0 1-3.494-3.5v-37.26h40.988v35.52a2.916 2.916 0 0 0 2.911 2.91 1.165 1.165 0 0 0 0-2.33.582.582 0 0 1-.583-.58v-29.7h3.494v31.44z" transform="translate(-932.281 -2607.28)"/></symbol><symbol id="icon-dill-06" viewBox="0 0 52 52"><path id="Forma_1" data-name="Forma 1" class="cls-1" d="M1457.92 2613.87a25.634 25.634 0 1 0 2.08 10.1 25.159 25.159 0 0 0-2.08-10.1zm-4.15 21.59a22.8 22.8 0 0 1-8.35 8.34 22.443 22.443 0 0 1-11.46 3.07 22.039 22.039 0 0 1-8.87-1.82 22.289 22.289 0 0 1-12.14-12.18 23.013 23.013 0 0 1 1.25-20.33 22.818 22.818 0 0 1 8.33-8.34 22.85 22.85 0 0 1 22.88 0 22.824 22.824 0 0 1 8.36 8.34 22.924 22.924 0 0 1 0 22.92zm-18.16-11.72v-14.73a1.64 1.64 0 0 0-1.65-1.59 1.6 1.6 0 0 0-1.57 1.59v14.96a1.2 1.2 0 0 1 .06.23 1.483 1.483 0 0 0 .43 1.28l8.5 8.5a1.616 1.616 0 0 0 2.19 0 1.528 1.528 0 0 0 0-2.21z" transform="translate(-1408 -2598)"/></symbol><symbol id="temp-icon-left-arrow" viewBox="0 0 31.494 31.494"><path d="M10.273 5.01a1.117 1.117 0 0 1 1.587 1.57l-8.047 8.047h26.554c.62 0 1.127.492 1.127 1.11 0 .62-.508 1.128-1.127 1.128H3.813l8.047 8.032c.43.444.43 1.16 0 1.587a1.112 1.112 0 0 1-1.587 0L.32 16.532a1.12 1.12 0 0 1 0-1.57l9.953-9.953z" fill="#1E201D"/></symbol><symbol id="temp-icon-right-arrow" viewBox="0 0 31.49 31.49"><path d="M21.205 5.007a1.117 1.117 0 0 0-1.587 1.57l8.047 8.048H1.11c-.618 0-1.11.493-1.11 1.112 0 .62.492 1.127 1.11 1.127h26.555l-8.047 8.032c-.43.444-.43 1.16 0 1.587.444.444 1.16.444 1.587 0l9.952-9.952a1.092 1.092 0 0 0 0-1.57l-9.952-9.95z" fill="#1E201D"/></symbol></svg>