<svg xmlns="http://www.w3.org/2000/svg" width="712" height="535" viewBox="0 0 712 535">
  <metadata><?xpacket begin="﻿" id="W5M0MpCehiHzreSzNTczkc9d"?>
<x:xmpmeta xmlns:x="adobe:ns:meta/" x:xmptk="Adobe XMP Core 5.6-c138 79.159824, 2016/09/14-01:09:01        ">
   <rdf:RDF xmlns:rdf="http://www.w3.org/1999/02/22-rdf-syntax-ns#">
      <rdf:Description rdf:about=""/>
   </rdf:RDF>
</x:xmpmeta>
                                                                                                    
                                                                                                    
                                                                                                    
                                                                                                    
                                                                                                    
                                                                                                    
                                                                                                    
                                                                                                    
                                                                                                    
                                                                                                    
                                                                                                    
                                                                                                    
                                                                                                    
                                                                                                    
                                                                                                    
                                                                                                    
                                                                                                    
                                                                                                    
                                                                                                    
                                                                                                    
                           
<?xpacket end="w"?></metadata>
<defs>
    <style>
      .cls-1 {
        fill: #d9d9d9;
        fill-rule: evenodd;
      }
    </style>
  </defs>
  <path id="Forma_1" data-name="Forma 1" class="cls-1" d="M93.072,188.233L124.663,16.081A19.658,19.658,0,0,1,144.017,0H386.41A19.663,19.663,0,0,1,405.5,14.853l37.2,148.313h81.438V19.61a19.675,19.675,0,0,1,39.349,0V163.166H671.867a19.629,19.629,0,0,1,19.253,23.652L665.4,308.609A127.5,127.5,0,0,1,712,407.133C712,477.639,654.454,535,583.721,535s-128.28-57.361-128.28-127.867c0-2.37.077-4.722,0.205-7.062H365.9A186.767,186.767,0,0,1,186.513,535C83.668,535,0,451.6,0,349.083,0,280.485,37.468,220.452,93.072,188.233Zm44.6-25.067h84.255V39.222h-61.51ZM371.048,39.222H261.278V163.166H402.134ZM583.721,495.777c49.035,0,88.929-39.766,88.929-88.644s-39.894-88.644-88.929-88.644-88.93,39.766-88.93,88.644S534.685,495.777,583.721,495.777ZM464.175,360.848a128.353,128.353,0,0,1,165.416-73.1l18.028-85.36H300.969a185.488,185.488,0,0,1,72.064,146.694c0,3.952-.139,7.873-0.385,11.765h91.527ZM186.514,495.777c81.149,0,147.168-65.806,147.168-146.694S267.663,202.389,186.514,202.389,39.348,268.2,39.348,349.083,105.366,495.777,186.514,495.777Zm0-246.148c55.016,0,99.775,44.616,99.775,99.454s-44.759,99.454-99.775,99.454S86.74,403.922,86.74,349.083,131.5,249.629,186.514,249.629Zm0,159.685a60.231,60.231,0,1,0-60.425-60.231A60.4,60.4,0,0,0,186.514,409.314Zm397.207-56.253a54.073,54.073,0,1,1-54.248,54.072A54.221,54.221,0,0,1,583.721,353.061Zm0,68.922a14.85,14.85,0,1,0-14.9-14.85A14.89,14.89,0,0,0,583.721,421.983Z"/>
</svg>
